<svg xmlns="http://www.w3.org/2000/svg" width="732" height="140" viewBox="0 0 732 140"><path d="M12.6 25.3L17 54l13.1-2-4.4-28.7 11.6-1.8L47.9 91l-11.6 1.8-4.5-29.5-13.1 2 4.5 29.5-11.6 1.8L1 27.1l11.6-1.8zM58.6 89.6l-8.8-69.7 33.4-4.2L84.6 27l-21.7 2.7L65 47l16.2-2 1.4 11.3-16.2 2 2.3 18.5 21.7-2.7L92 85.4l-33.4 4.2zM128.9 66.3l-6.1.6-14.5-31.1L113 83l-11.7 1.2-6.9-70 14.5-1.4 14.8 31.9 8.2-34.2 14.5-1.4 6.9 70-11.7 1.2-4.5-47.3-8.2 33.3zM164.2 78.2L159 8.1l29.8-2.2 6.1 5.3 2.3 31.4-5.3 6.1-18.1 1.3 2 27.3-11.6.9zm19.5-40.3l1.3-1.5-1.3-17.3-1.5-1.2-10.6.8 1.5 20 10.6-.8zM264.8 1.8l.5 11.4-21.9 1 .8 18 16.2-.7.5 11.4-16.2.7 1.3 29.5-11.7.5-3.2-70.2 33.7-1.6zM310.2 6.3l1.6 58.8-5.6 5.9-23.7.6-5.9-5.6L275 7.2l5.6-5.9 23.7-.6 5.9 5.6zm-13 6l-8.9.2-1.3 1.3 1.2 44.8 1.3 1.3 8.9-.2 1.4-1.3-1.2-44.8-1.4-1.3zM322.9 70.6L322.2.3l30.4-.3 5.8 5.7.3 31.4-5.7 5.8 6 27.3-11.6.1-6-27.3-7 .1.3 27.4-11.8.1zm22.7-39l1.3-1.4-.2-17.4-1.3-1.3-11.3.1.2 20.1 11.3-.1zM369.2 64.5l.5-58.8 5.8-5.7 23.7.2 5.7 5.8-.1 14.5-11.7-.1-.1-7.4-1.4-1.4-8.9-.1-1.4 1.4-.3 44.6 1.4 1.4 8.9.1 1.4-1.4.1-7.4 11.7.1-.1 14.5-5.8 5.7-23.7-.2-5.7-5.8zM414.3 70.7L416 .4l33.7.8-.3 11.4-21.9-.5-.5 17.5 16.3.4-.3 11.4-16.2-.4-.5 18.7 21.9.5-.3 11.4-33.6-.9z" fill="#979696"/><path d="M510 59.2l-14.4-.8-4 15-12-.6L500 3.4l11.5.6 12.8 71.1-12-.6-2.3-15.3zm-1.7-11.5l-3.6-23.9-6.2 23.4 9.8.5zM532.3 69.9l4.3-58.7 6.1-5.3 23.6 1.7 5.3 6.1-1.1 14.5-11.7-.9.5-7.4-1.3-1.5-8.9-.7-1.5 1.3-3.3 44.5 1.3 1.5 8.9.7 1.5-1.3.5-7.4 11.7.9-1.1 14.5-6.1 5.3-23.6-1.7-5.1-6.1zM616.6 23.6L604 22.5l-5.5 58.7-11.7-1.2 5.5-58.7-12.6-1.2 1.1-11.3 36.9 3.5-1.1 11.3zM619.3 83.2l7.7-69.9 11.7 1.3-7.7 69.9-11.7-1.3zM666.8 88.9L651.9 87l-4.1-71.4 11.7 1.5 2.2 53 15.4-50.7 11.7 1.5-22 68zM687.6 91.7l10.6-69.5 33.3 5.1-1.7 11.2-21.7-3.3-2.6 17.3 16.1 2.5-1.7 11.2-16.1-2.5-2.8 18.5 21.7 3.3-1.7 11.2-33.4-5z" fill="#FC4237"/><g fill="#979696"><path d="M296 138.7h-4.9V106h6.9c5.7 0 8.2 2.9 8.2 9.5 0 4.2-.9 6.5-3.3 8.2l3.8 15h-5.2l-3.1-13.7H296v13.7zm1.6-18.2c1.7 0 2.3-.2 2.8-1s.8-2.3.8-3.9c0-1.8-.3-3.3-1-4.1-.5-.7-1.1-.9-2.7-.9H296v9.9h1.6zM329.9 110.6h-8.4v8.9h6.1v4.6h-6.1v10.1h8.4v4.6h-13.3V106h13.3v4.6zM350 116.8c0-1.9 0-3.4-.1-4.2-.2-1.6-1.2-2.6-2.6-2.6-1.3 0-2.2.8-2.5 2.2-.1.6-.2 2.2-.2 4.9v10.4c0 3.1.1 4.5.3 5.2.4 1.2 1.3 1.9 2.4 1.9 1.4 0 2.4-1.1 2.6-2.7.1-.9.1-3.3.1-4.8h4.9v1.9c0 3.4-.2 4.7-1.1 6.4-1.2 2.4-3.6 3.8-6.5 3.8-2.3 0-4.4-.9-5.7-2.6-1.6-2-2-3.6-2-8.7v-11.1c0-5.1.3-6.8 2-8.7 1.3-1.7 3.4-2.6 5.7-2.6 2.8 0 5.3 1.3 6.5 3.6.9 1.6 1.1 2.8 1.1 6v1.8H350zM369.8 138.7h-4.9V106h4.9v32.7zM385.2 138.7h-4.9V106h6.9c6.3 0 8.5 2.5 8.5 9.6s-2.2 9.6-8.5 9.6h-2v13.5zm1.5-18.1c3.2 0 4-1 4-5s-.8-5-4-5h-1.6v10h1.6zM418.9 110.6h-8.4v8.9h6.1v4.6h-6.1v10.1h8.4v4.6h-13.3V106h13.3v4.6zM438.8 114c-.3-2.9-1-4-2.8-4-1.7 0-2.7 1.3-2.7 3.2 0 2.3.9 3.6 4.4 6.8 5.1 4.7 6.3 6.7 6.3 10.7 0 5-3.1 8.4-7.7 8.4-4.8 0-8-3.5-8.1-8.8l4.7-.8c.1 3.4 1.3 5.1 3.5 5.1 1.8 0 3-1.4 3-3.6 0-1.2-.4-2.4-1.3-3.5-.8-1-1.1-1.4-3.8-3.9-4.1-3.8-5.6-6.4-5.6-10 0-4.9 3.1-8.1 7.7-8.1 4.3 0 6.8 2.6 7.4 7.8l-5 .7z"/></g><path fill="#979696" d="M194 121.8h81v2h-81zM459 121.8h81v2h-81z"/></svg>