<svg xmlns="http://www.w3.org/2000/svg" width="341.219" height="73.646" viewBox="0 0 341.219 73.646"><g fill="#FFF"><path d="M0 31.937V.517h8.102v31.42H0zM19.593 31.937V7.584h-8.81V.518h25.673v7.066h-8.76v24.353h-8.103zM48.415 16.25C48.415 6.548 55.763 0 65.42 0c7.583 0 11.68 4.287 13.707 8.385l-6.972 3.344c-1.036-2.498-3.72-4.57-6.736-4.57-5.135 0-8.762 3.91-8.762 9.09 0 5.136 3.627 9.092 8.76 9.092 3.016 0 5.7-2.072 6.737-4.57l6.972 3.3c-2.025 4.003-6.124 8.43-13.708 8.43-9.657 0-17.005-6.595-17.005-16.25zM79.828 16.25C79.828 6.69 87.035 0 96.644 0c9.61 0 16.77 6.69 16.77 16.25 0 9.563-7.16 16.252-16.77 16.252s-16.816-6.69-16.816-16.25zm25.34 0c0-5.133-3.343-9.09-8.524-9.09-5.182 0-8.573 3.957-8.573 9.09 0 5.088 3.393 9.092 8.574 9.092 5.18 0 8.525-4.004 8.525-9.09zM116.328 19.22V.517h8.243v18.417c0 3.722 2.262 6.406 6.643 6.406 4.333 0 6.595-2.684 6.595-6.405V.518h8.196V19.17c0 7.82-4.71 13.332-14.79 13.332-10.082 0-14.886-5.56-14.886-13.283zM150.332 31.937V.517h8.102v24.354h12.624v7.066h-20.726zM174.02 31.937V.517h13.19c9.892 0 17.005 5.936 17.005 15.687s-7.113 15.733-16.958 15.733H174.02zm21.905-15.733c0-4.852-2.92-8.62-8.668-8.62h-5.134V24.87h5.087c5.512 0 8.715-4.003 8.715-8.666zM224.98 31.937V7.584h-8.808V.518h25.672v7.066h-8.762v24.353h-8.1zM262.943 31.937l-1.554-4.52H249l-1.555 4.52h-9.186L250.08.52h10.222l11.823 31.417h-9.184zm-7.725-23.41l-4.004 11.822h7.96l-3.956-11.824zM291.718 31.937l-8.243-11.823-2.12 2.638v9.186h-8.102V.518h8.102v12.907L291.01.518h9.987l-12.2 14.697 12.86 16.722h-9.94zM302.877 31.937V.517h23.034v7.067H310.98v4.898h14.603v7.065H310.98v5.323h14.933v7.065h-23.033zM0 60.362v-18.7h8.243V60.08c0 3.72 2.26 6.405 6.642 6.405 4.333 0 6.595-2.685 6.595-6.406V41.66h8.196v18.652c0 7.82-4.71 13.33-14.79 13.33C4.805 73.647 0 68.088 0 60.363zM34.146 73.08V41.662H49.88c7.064 0 10.927 4.757 10.927 10.457 0 5.65-3.862 10.408-10.928 10.408h-7.632V73.08h-8.102zm18.417-20.96c0-2.168-1.743-3.393-3.91-3.393h-6.406v6.735h6.406c2.167 0 3.91-1.224 3.91-3.343zM81.148 73.08V48.728H72.34v-7.065h25.672v7.065H89.25V73.08h-8.102zM98.055 57.395c0-9.562 7.207-16.25 16.816-16.25 9.61 0 16.77 6.687 16.77 16.25s-7.16 16.25-16.77 16.25c-9.608 0-16.815-6.688-16.815-16.25zm25.342 0c0-5.135-3.344-9.09-8.525-9.09-5.182 0-8.573 3.955-8.573 9.09 0 5.087 3.39 9.09 8.572 9.09 5.18 0 8.525-4.004 8.525-9.09zM144.68 73.08v-6.312c13.614-9.845 16.157-12.012 16.157-15.168 0-2.12-2.025-3.25-4.333-3.25-3.485 0-6.124 1.32-8.384 3.438l-4.475-5.37c3.345-3.674 8.337-5.23 12.718-5.23 7.395 0 12.718 4.147 12.718 10.41 0 4.853-3.437 8.95-11.257 14.415h11.494v7.065H144.68zM204.875 73.08V60.456h-13.048V73.08h-8.103V41.662h8.103v11.73h13.048V41.66h8.102V73.08h-8.102zM215.844 57.395c0-9.562 7.207-16.25 16.816-16.25s16.77 6.687 16.77 16.25-7.16 16.25-16.77 16.25-16.816-6.688-16.816-16.25zm25.342 0c0-5.135-3.344-9.09-8.525-9.09s-8.572 3.955-8.572 9.09c0 5.087 3.392 9.09 8.573 9.09s8.526-4.004 8.526-9.09zM252.344 60.362v-18.7h8.243V60.08c0 3.72 2.26 6.405 6.642 6.405 4.333 0 6.594-2.685 6.594-6.406V41.66h8.196v18.652c0 7.82-4.71 13.33-14.79 13.33s-14.886-5.557-14.886-13.282zM304.012 73.08l-5.275-10.552h-4.146V73.08h-8.1V41.662h15.73c6.973 0 10.93 4.616 10.93 10.457 0 5.463-3.298 8.383-6.265 9.42l6.405 11.54h-9.278zm.896-21.01c0-2.165-1.743-3.343-3.91-3.343h-6.406v6.735h6.406c2.167 0 3.91-1.177 3.91-3.39zM314.182 68.652l4.286-6.312c2.26 2.26 5.747 4.145 10.08 4.145 2.732 0 4.428-.94 4.428-2.496 0-4.147-17.758-.708-17.758-12.813 0-5.275 4.428-9.986 12.482-9.986 5.04 0 9.42 1.51 12.766 4.382l-4.428 6.076c-2.64-2.214-6.077-3.297-9.186-3.297-2.355 0-3.392.802-3.392 2.168 0 3.862 17.758.94 17.758 12.624 0 6.312-4.663 10.504-13.095 10.504-6.357 0-10.785-2.026-13.94-4.994z"/></g></svg>