<svg xmlns="http://www.w3.org/2000/svg" width="289.921" height="255.105" viewBox="0 0 289.921 255.105"><g opacity=".88" fill="#9D653C"><path d="M135.725 74.258v106.59c0 38.017-17.054 71.06-55.427 71.06H0V3.198h80.298c25.226 0 46.19 17.41 51.874 41.215 2.132 9.593 3.553 19.54 3.553 29.845zM71.06 216.378c17.765 0 22.384-15.633 22.384-35.53V74.258c0-19.897-4.62-35.53-22.384-35.53H44.413v177.65H71.06zM289.92 180.848c0 40.15-27.712 74.258-70.704 74.258-44.768 0-64.666-30.556-64.666-55.782v-19.54h44.77v19.54c0 7.462 7.105 20.252 19.896 20.252 18.12 0 25.226-18.83 25.226-38.728 0-26.647-7.817-45.478-36.596-45.478h-8.527V99.84h1.776c28.78 0 38.373-16.7 38.373-34.11 0-18.475-8.528-30.2-20.253-30.2-12.79 0-19.897 13.147-19.897 20.608v16.7h-44.77V55.78C154.55 30.556 174.448 0 219.216 0c39.082 0 62.532 23.805 62.532 62.533 0 25.226-16.7 48.32-32.687 55.07 22.74 9.95 40.86 28.78 40.86 63.245z"/></g></svg>