<svg xmlns="http://www.w3.org/2000/svg" width="1177.713" height="59.434" viewBox="0 0 1177.713 59.434"><g fill="#1A1F26"><path d="M41.345 58.4V31.096H4.91V58.4H0V.948h4.91v25.668h36.436V.948h4.91V58.4h-4.91zM54.954 29.717C54.954 12.92 65.98 0 82.86 0c16.797 0 27.91 12.92 27.91 29.717 0 16.797-11.113 29.717-27.91 29.717-16.88 0-27.906-12.92-27.906-29.717zm50.647 0c0-14.557-8.957-25.237-22.74-25.237-13.867 0-22.74 10.68-22.74 25.237 0 14.47 8.873 25.238 22.74 25.238 13.783 0 22.74-10.767 22.74-25.238zM161.762 58.4L147.98 9.045 134.198 58.4h-5.513L112.235.948h5.512l13.868 50.562L145.74.948h4.48l14.04 50.562L178.128.948h5.513L167.275 58.4h-5.512zM223.432 58.4L200.865.948h11.456l17.4 46.427L247.12.948h11.456L236.008 58.4h-12.576zM261.33 58.4V.948h10.08V58.4h-10.08zM293.89 58.4V9.82h-17.4V.947h44.877v8.87h-17.4V58.4H293.89zM361.162 58.4l-4.22-11.11h-26.358l-4.22 11.11h-11.457L337.474.948h12.576L372.618 58.4h-11.456zm-17.4-47.375l-10.336 27.392H354.1L343.76 11.025zM424.987 58.4V14.04l-17.57 44.36h-4.308l-17.66-44.36V58.4h-10.077V.948h14.212l15.677 39.45 15.59-39.45h14.212V58.4h-10.077zM443.85 58.4V.948h10.078V58.4H443.85zM502.766 58.4L472.79 17.313V58.4h-10.078V.948h10.336l29.372 39.794V.948h10.078V58.4h-9.732zM540.06 58.4V.948h21.363c18.002 0 30.06 11.887 30.06 28.683 0 16.97-12.058 28.77-29.974 28.77h-21.45zm41.087-28.77c0-11.024-6.89-19.81-19.64-19.81h-11.37v39.708h11.285c12.49 0 19.725-8.958 19.725-19.897zM615.514 29.717C615.514 12.92 626.54 0 643.422 0c16.796 0 27.907 12.92 27.907 29.717 0 16.797-11.112 29.717-27.908 29.717-16.883 0-27.908-12.92-27.908-29.717zm50.647 0c0-14.557-8.957-25.237-22.738-25.237-13.868 0-22.74 10.68-22.74 25.237 0 14.47 8.872 25.238 22.74 25.238 13.78 0 22.74-10.767 22.74-25.238zM680.028 58.4V.948h21.534c11.025 0 17.312 7.752 17.312 16.796S712.5 34.54 701.562 34.54h-16.625V58.4h-4.91zm33.68-40.656c0-7.235-4.996-12.317-12.663-12.317h-16.107v24.635h16.107c7.667 0 12.662-5.168 12.662-12.318zM740.408 58.4V5.427H721.63V.947h42.552v4.48h-18.777V58.4h-4.997zM770.9 58.4V.948h4.91V58.4h-4.91zM835.415 58.4V7.15L814.483 58.4h-1.895L791.57 7.15V58.4h-4.908V.948h7.32l19.554 47.805L833.003.948h7.408V58.4h-4.995zM851.264 58.4V.948h4.91V58.4h-4.91zM864.183 58.4v-4.307L898.81 5.427h-34.627V.947h40.828v4.22l-34.625 48.754h35.23v4.48h-41.432zM913.624 58.4V.948h36.436v4.48h-31.526V26.7h30.923v4.48h-30.923V53.92h31.526v4.48h-36.436zM955.57 50.304l3.19-3.704c3.703 4.22 9.732 8.355 18 8.355 11.716 0 15.075-6.547 15.075-11.456 0-16.884-34.454-8.098-34.454-28.168C957.38 5.942 965.823 0 976.245 0c8.527 0 15.074 3.015 19.467 8.097l-3.272 3.618c-4.134-4.996-9.99-7.235-16.452-7.235-7.666 0-13.437 4.393-13.437 10.595 0 14.73 34.453 6.632 34.453 28.08 0 7.408-4.91 16.28-20.414 16.28-9.476 0-16.625-3.877-21.02-9.13zM1041.19 58.4V33.852L1018.362.95h5.943l19.38 28.25 19.38-28.25h5.944l-22.825 32.902V58.4h-4.996zM1068.408 29.717c0-16.796 11.025-29.717 27.908-29.717 16.796 0 27.907 12.92 27.907 29.717 0 16.797-11.11 29.717-27.907 29.717-16.882 0-27.908-12.92-27.908-29.717zm50.648 0c0-14.557-8.958-25.237-22.74-25.237-13.867 0-22.74 10.68-22.74 25.237 0 14.47 8.873 25.238 22.74 25.238 13.782 0 22.74-10.767 22.74-25.238zM1132.923 36.35V.948h4.996v35.315c0 11.628 6.114 18.69 17.398 18.69 11.283 0 17.4-7.062 17.4-18.69V.948h4.994V36.35c0 14.213-7.58 23.084-22.395 23.084-14.728 0-22.394-8.958-22.394-23.084z"/></g></svg>